<svg width="28" height="28" viewBox="0 0 28 28" fill="none" xmlns="http://www.w3.org/2000/svg">
<rect width="27.122" height="28" rx="5" fill="#FB5151"/>
<path d="M19.122 10.6341C19.1219 10.7775 19.0693 10.9159 18.974 11.023C18.8787 11.1302 18.7475 11.1986 18.6051 11.2154L18.5366 11.2195H18.042L17.3214 18.5483C17.2821 18.946 17.0964 19.3148 16.8003 19.5831C16.5042 19.8515 16.1188 20 15.7192 20H11.4027C11.0031 20 10.6178 19.8515 10.3217 19.5831C10.0256 19.3148 9.83982 18.946 9.80059 18.5483L9.08 11.2195H8.58537C8.43012 11.2195 8.28123 11.1578 8.17145 11.0481C8.06167 10.9383 8 10.7894 8 10.6341C8 10.4789 8.06167 10.33 8.17145 10.2202C8.28123 10.1105 8.43012 10.0488 8.58537 10.0488H11.5122C11.5122 9.77973 11.5652 9.51332 11.6681 9.26475C11.7711 9.01618 11.922 8.79032 12.1123 8.60007C12.3025 8.40983 12.5284 8.25892 12.7769 8.15595C13.0255 8.05299 13.2919 8 13.561 8C13.83 8 14.0964 8.05299 14.345 8.15595C14.5936 8.25892 14.8194 8.40983 15.0097 8.60007C15.1999 8.79032 15.3508 9.01618 15.4538 9.26475C15.5568 9.51332 15.6098 9.77973 15.6098 10.0488H18.5366C18.6918 10.0488 18.8407 10.1105 18.9505 10.2202C19.0603 10.33 19.122 10.4789 19.122 10.6341ZM14.878 12.5366C14.772 12.5366 14.6695 12.575 14.5895 12.6447C14.5095 12.7145 14.4576 12.8108 14.4431 12.9159L14.439 12.9756V17.0732L14.4431 17.1329C14.4576 17.238 14.5096 17.3343 14.5895 17.404C14.6695 17.4737 14.772 17.5121 14.878 17.5121C14.9841 17.5121 15.0866 17.4737 15.1666 17.404C15.2465 17.3343 15.2985 17.238 15.313 17.1329L15.3171 17.0732V12.9756L15.313 12.9159C15.2985 12.8108 15.2465 12.7145 15.1666 12.6447C15.0866 12.575 14.9841 12.5366 14.878 12.5366ZM12.2439 12.5366C12.1378 12.5366 12.0353 12.575 11.9554 12.6447C11.8754 12.7145 11.8234 12.8108 11.809 12.9159L11.8049 12.9756V17.0732L11.809 17.1329C11.8234 17.238 11.8754 17.3343 11.9554 17.404C12.0353 17.4737 12.1378 17.5121 12.2439 17.5121C12.35 17.5121 12.4525 17.4737 12.5324 17.404C12.6124 17.3343 12.6644 17.238 12.6788 17.1329L12.6829 17.0732V12.9756L12.6788 12.9159C12.6644 12.8108 12.6124 12.7145 12.5324 12.6447C12.4525 12.575 12.35 12.5366 12.2439 12.5366ZM13.561 9.17073C13.3281 9.17073 13.1048 9.26324 12.9401 9.42791C12.7754 9.59257 12.6829 9.81591 12.6829 10.0488H14.439C14.439 9.81591 14.3465 9.59257 14.1818 9.42791C14.0172 9.26324 13.7938 9.17073 13.561 9.17073Z" fill="black"/>
</svg>
