<svg width="28" height="28" viewBox="0 0 28 28" fill="none" xmlns="http://www.w3.org/2000/svg">
<rect width="28" height="28" rx="5" fill="#83D18B"/>
<path d="M15.136 9.83949L18.1603 12.8635L12.2205 18.804C12.055 18.9696 11.8492 19.089 11.6234 19.1507L8.56564 19.9844C8.48943 20.005 8.40911 20.0052 8.33281 19.9849C8.2565 19.9645 8.18693 19.9244 8.13112 19.8685C8.07531 19.8127 8.03526 19.7431 8.015 19.6668C7.99474 19.5904 7.99501 19.5101 8.01577 19.4339L8.84954 16.3764C8.91117 16.1506 9.03066 15.9449 9.1962 15.7794L15.1348 9.83949H15.136ZM19.3737 8.62629C19.7747 9.0273 20 9.57119 20 10.1383C20 10.7054 19.7747 11.2493 19.3737 11.6503L18.7939 12.23L15.7696 9.206L16.3493 8.62629C16.7504 8.22528 17.2943 8 17.8615 8C18.4287 8 18.9726 8.22528 19.3737 8.62629Z" fill="black"/>
</svg>
